{"title":"Dinner for Schmucks  CAM 2010 XVID FEEL-FREE","uid":5735837,"size":1278276819,"categoryP":"video","categoryS":"movies","magnet":"?xt=urn:btih:dc712bd35f8f5abc2a746876c50cdd835af38346&amp;dn=Dinner+for+Schmucks++CAM+2010+XVID+FEEL-FREE&amp;tr=udp%3A%2F%2Ftracker.openbittorrent.com%3A80&amp;tr=udp%3A%2F%2Fopen.demonii.com%3A1337&amp;tr=udp%3A%2F%2Ftracker.coppersurfer.tk%3A6969&amp;tr=udp%3A%2F%2Fexodus.desync.com%3A6969","seeders":0,"leechers":1,"uploader":"hiest","files":8,"time":1280811680,"description":" &lt;a href=&quot;http://www.imdb.com/title/tt0427152/&quot; rel=&quot;nofollow&quot; target=&quot;_NEW&quot;&gt;http://www.imdb.com/title/tt0427152/&lt;/a&gt;\n\n\nTorrent Description\n\n\nGenre:Comedy\nLanguage:English\nIMDb:http://www.imdb.com/title/tt0427152/\nSource:Hogs.Thanks\nSample:YES\n....................................................\nGeneral\nComplete name : Dinner for Schmucks CAM 2010 XVID FEEL-FREE\nFormat : AVI\nFormat/Info : Audio Video Interleave\nFile size : 1.17 GiB\nDuration : 1h 49mn\nOverall bit rate : 1 528 Kbps\nWriting library : VirtualDub build 32817/release\n.....................................................\nVideo\nFormat : MPEG-4 Visual\nFormat profile : AdvancedSimple@L5\nFormat settings, BVOP : Yes\nFormat settings, QPel : No\nFormat settings, GMC : No warppoints\nFormat settings, Matrix : Custom\nCodec ID : XVID\nCodec ID/Hint : XviD\nDuration : 1h 49mn\nBit rate : 1 260 Kbps\nWidth : 652 pixels\nHeight : 352 pixels\nDisplay aspect ratio : 1.852\nFrame rate : 30.000 fps\nResolution : 24 bits\nColorimetry : 4:2:0\nScan type : Progressive\nBits/(Pixel*Frame) : 0.183\nStream size : 985 MiB (82%)\nWriting library : XviD 1.2.1 (UTC 2008-12-04)\n.......................................................\nAudio\nID : 1\nFormat : MPEG Audio\nFormat version : Version 1\nFormat profile : Layer 3\nCodec ID : 55\nCodec ID/Hint : MP3\nDuration : 1h 49mn\nBit rate mode : Constant\nBit rate : 256 Kbps\nChannel(s) : 2 channels\nSampling rate : 48.0 KHz\nResolution : 16 bits\nStream size : 200 MiB (17%)\nAlignment : Split accross interleaves\nInterleave, duration : 33 ms (1.00 video frame)\nInterleave, preload duration : 500 ms\n........................................................\nPlot:\nTim (Rudd) is a rising executive who &quot;succeeds&quot; in finding the perfect guest, IRS employee Barry (Carell)\n........................................................","torrent":{"xt":"urn:btih:dc712bd35f8f5abc2a746876c50cdd835af38346","amp;dn":"Dinner+for+Schmucks++CAM+2010+XVID+FEEL-FREE","amp;tr":["udp%3A%2F%2Ftracker.openbittorrent.com%3A80","udp%3A%2F%2Fopen.demonii.com%3A1337","udp%3A%2F%2Ftracker.coppersurfer.tk%3A6969","udp%3A%2F%2Fexodus.desync.com%3A6969"],"infoHash":"dc712bd35f8f5abc2a746876c50cdd835af38346","infoHashBuffer":{"type":"Buffer","data":[220,113,43,211,95,143,90,188,42,116,104,118,197,12,221,131,90,243,131,70]},"announce":[],"urlList":[]}}